<svg version="1" xmlns="http://www.w3.org/2000/svg" width="292" height="292" viewBox="0 0 219.000000 219.000000"><path d="M75.6 17.8c-.3.5.1.9.9.9s1.2-.4.9-.9c-.3-.4-.7-.8-.9-.8-.2 0-.6.4-.9.8zM89.9 17.2c0 .2-.2 1.1-.4 2.1-.5 2.5-2.5 4.8-3.7 4.1-.5-.3-.1-1.3.9-2.1s.1-.6-1.9.6c-2.5 1.3-3.8 1.6-3.8.8 0-.7-.5-.4-1.1.5-1.2 2.2-2.9 2.3-2.9.2 0-.9.5-1.2 1.2-.8.7.5.8.3.3-.6-.6-1-1.1-.9-2.2.5-1 1.5-1 2 0 2.7.6.4.9.8.5.9-2.7.5-3.5.4-5.1-.3-1.2-.6-1.9-.4-2.3.7-.3.8-1 1.2-1.5.9-.5-.3-.1.8.8 2.5 1 1.6 2.2 2.7 2.7 2.3.6-.3.5-.7-.2-1-1-.3-1-.7-.1-1.8 1-1.2.9-1.3-.5-.8-1.2.5-1.5.2-1-.9 1.2-3.1 4.1-.1 3.5 3.6-.1.5.7.6 1.8.2 1.1-.3 2.2-.2 2.4.3.3.4-.8.8-2.5.7-1.8 0-3.3.6-3.6 1.4-.3.8 0 1.1.5.8.5-.3 1.5.3 2.2 1.5 1 1.6 1 1.9-.1 1.2-2.2-1.5-6.9-1.2-6.3.3.3.9 0 1.1-.7.7-.6-.4-1.7.1-2.5 1.1-.8 1.3-1.3 1.4-1.3.5 0-1.7-1.3-.5-1.6 1.5-.2 1.1.5 1.4 2.4 1 2.5-.5 2.6-.5.4.5-1.2.5-2.5 1.6-2.8 2.5-.3.8-1.1 1.2-1.7.8-.6-.4-.8 0-.4 1 .3 1 .2 1.7-.2 1.7-1.5 0-2.2-3.3-1-4.4.9-.8 1-.8.5.1s-.2 1.1.8.7c1.2-.4 1.6-4.3.7-7.2-.1-.1-1 .2-2.1.8-1.1.6-1.7 1.6-1.4 2.5.5 1.1.2 1.3-.9.9-.9-.3-1.3-1.2-1-2 .3-.8.1-1.4-.5-1.4-.5 0-.9 1-.8 2.2.1 1.4-.4 2.2-1.2 2-.8-.1-1.1.2-.7.9.5.8 1 .8 1.8 0 .6-.6 1.5-1.1 2-1.1s-.7 1.8-2.7 4.1c-3.7 4-4.2 6.3-1.5 6.5 2.5.1 3.1-.8 1.2-2.1-1.7-1.3-1.7-1.4.1-3.4 2.1-2.4 3.6-2 1.6.4-1 1.2-1 1.8 0 3 1.8 2.1 2.6 1 .9-1.2-1.2-1.6-1.2-1.7.2-.6.9.7 1.8 1 2.2.7.3-.3 1.3-.2 2.2.4 1.6.8 1.6.9.1 1.5-1 .4-1.5.3-1.1-.3.3-.6.2-1-.3-1s-1.4 1-2 2.2c-.6 1.3-1.1 1.7-1.1 1-.1-.7-.5-1.1-1-.8-1.5.9-.1 4.5 1.5 3.9.8-.3 1.4-.1 1.4.5 0 1.7-3.3.6-4-1.3-.4-1.2-.9-1.5-1.4-.7-.4.6.2 2 1.4 3.2 1.1 1.1 1.6 2 1.1 2-.6 0-1.6-.9-2.4-2-.8-1.1-1.7-1.7-2-1.3-.4.3-.1 1.3.6 2.1 1 1.3.9 1.4-.2.7-1-.6-1.3-.4-.9.6s-.1 1.5-1.3 1.6c-1 .1-1.9-.3-1.9-.8 0-.6-.5-.7-1-.4-.8.5-.7 1.2.2 2.3 1 1.4 1 1.5-.2.4-2.3-2-3.4-1.3-1.4.9 1.9 2.2 1.9 2.2-.3.8-1.4-.8-2.1-2.1-1.8-3.4.2-1.1.4-2.5.5-3 .1-.6.5-.1.9 1 .8 1.9.8 1.9 2-.4.9-1.6.9-2.1.2-1.6-1.7 1-4.1-1.3-3.4-3.3.4-1.4.3-1.5-.6-.2-.5.8-.6 1.9-.2 2.3.4.4-.3 2.1-1.7 3.7-2 2.2-2.9 2.7-3.9 1.9-1.4-1.2-.9-2.9.8-2.9.6 0 .7.5.3 1.2-.5.7-.3.8.5.3.9-.5 1-1 .2-1.8-.7-.7-1.5-.6-2.5.2-1.2 1-1.3 1.7-.3 3.2.6 1 1.8 2.1 2.5 2.4.8.3 1 0 .6-.7-.5-.7-.3-.8.6-.3.9.6 1.1.4.5-.5-.5-.8-.4-1.1.3-.6.6.4.8 1.4.5 2.3-.4 1.1-.3 1.4.5.9.7-.4 1.2-.2 1.2.4 0 .7-.7.9-1.5.6-.8-.3-2.2-.9-3-1.2-1.1-.5-1.4-.1-.9 1.2.5 1.7.4 1.6-.7-.1-.7-1.1-1.6-2.3-2.1-2.6-.6-.3-.9-1-.8-1.5.1-.5-.4-1-1.2-1.2-.9-.2-.8 0 .2.7.8.6 1.1 1.1.6 1.1-.5 0-.3.6.3 1.4.8 1 .8 1.6-.2 2.5-1.4 1.1-2.7.6-2.7-1.1 0-.5.5-.6 1.2-.2.7.4.8.3.4-.4-.4-.6-1.4-.8-2.2-.5-1.1.4-1.2.9-.5 1.6 1.4 1.4 1.4 3 .1 2.2-.5-.3-1-.1-1 .4 0 1.4.6 1.4 3.3 0 1.8-.9 2-.9 1 .2-2.2 2.2-1.4 3.3.9 1.3 1.4-1.2 1.8-1.3 1-.3-.6.9-1 1.9-.7 2.2.3.4.2.5-.2.2-.3-.3-1.3.1-2.1.8-1.1.8-1.4.8-.9 0 .4-.6.2-1.5-.4-1.9-.8-.5-.9-.3-.4.6.6 1 .4 1.2-.7.7-2.4-.9-3 .4-1.3 3 1 1.5 1.1 2.3.4 2.3-.6 0-.8.7-.5 1.6.4.9.1 2.4-.6 3.2-.8 1-.9 1.3-.1.9.6-.4 1.3-.4 1.6 0 .2.5.2.2.1-.5-.2-.6.2-1.2.8-1.2.6 0 .5-.6-.3-1.7-.8-.9-.9-1.4-.4-1.1.7.4 1.1-.3 1.1-1.7 0-1.3-.4-2.1-.8-1.9-.4.3-.8.1-.8-.5 0-1.2 4.5-.8 4.5.5 0 .5-.6.7-1.4.6-1.2-.3-1.2-.1-.3 1 .9 1.1.9 1.7 0 2.6-.8.8-.8 1.2.3 1.6 3.6 1.1 4.2 1.6 1.6 1.2-2.1-.2-2.7.1-2.7 1.5 0 1-.9 2.1-2.1 2.4l-2.1.7 2.1 1.5c2.1 1.4 3.1 5 1.1 3.8-.5-.3-1-.1-1 .4 0 1.6 1.6 1.3 3.1-.6 1.5-1.7 1.4-1.9-.4-4.2-.9-1.1-.9-1.5.1-1.8.6-.3 1-.8.8-1.2-.3-.4.1-.8.9-.8 1.1 0 1.2.4.4 1.4-.9.9-.7 1.4.5 1.9 1.5.6 1.5.8-.1 2.1-1.7 1.3-1.6 1.4.6.7 1.6-.4 2.1-.3 1.7.5-.4.6-1.1 1.1-1.7 1.1-1.6 0-4.9 3.8-3.6 4.3 1.3.4 1.8 7.7.5 7.7-.4 0-.8.5-.8 1.1 0 .8.4.9 1.3 0 1.4-1.1 2.7-.5 2.7 1.1 0 .5-.4.6-1 .3-.5-.3-1-.2-1 .3s1.6.9 3.5.9 3.2-.4 2.9-.9c-.4-.5-1.2-.7-2-.4-.9.3-1.1 0-.7-1.1.5-1.1.3-1.4-.6-.8-1 .6-1.1.3-.2-1.4.8-1.4.8-2.1.1-2.1-.5 0-1 .7-1 1.6 0 .8-.5 1.2-1 .9-.8-.5-.7-1.1.1-2.1.8-1 .8-1.4 0-1.4-.6 0-1.1-.5-1.1-1.1 0-.5.4-.8.9-.4.5.3 1.3 0 1.7-.6.5-.8.3-.9-.7-.4-.8.5-1.1.5-.7 0 .4-.4.3-1.4-.3-2.1-.6-.8-.6-1.4 0-1.8.5-.4 1.2-.2 1.6.4.3.5.3 1-.2 1-.4 0-.2.4.6.9 1.3.8 1.3 1.2.1 2.6-1.2 1.4-1.2 1.6.1 1.5 3.5-.5 4.3 0 2.3 1.5-1.9 1.5-1.9 1.5.3 3.4 2 1.6 2.1 2.1.9 5.4-.7 2-2 4.5-3 5.6-1.4 1.6-1.6 2.4-.7 3.4.6.8.8 1.7.4 2.1-.4.4.1.4 1.2 0 2-.7 2-.7.1 1.4-1.1 1.2-1.6 2.5-1.3 2.9.4.3.7 0 .7-.7 0-1.7 1.3-.4 1.6 1.5.1.8-.6 2.1-1.7 2.8-1.8 1.3-1.8 1.4.7 2.6 2.6 1.1 2.6 1.2.8 2.6-1.2.9-1.4 1.4-.6 1.5.7 0 1 .5.7 1-.5.8-1.1.7-2.1-.1-1-.8-1.4-.8-1.4 0 0 .6.6 1.1 1.3 1.1.8 0 .7.4-.3 1.1-1.3.9-1.2 1 .2.5 1-.3 2-.1 2.3.3.7 1.2-2.2 2.2-4.3 1.4-1.6-.7-1.6-.6.1 1.1.9.9 1.7 2 1.8 2.4 0 .4.2 1.5.4 2.4.2 1-.1 2-.6 2.4-.9.5-1.3-.9-.9-3.6.1-1.1-.1-1.2-1-.4-.9.9-.9 1.7-.1 3.2 1.3 2.5 1.4 3.5.2 2.8-.5-.3-1.4.1-2 .8-.8 1-.9 1.6-.1 2.1.5.3 1 1.1 1 1.6 0 .6-.6.7-1.2.3-1-.6-1-.4 0 .8 1.1 1.4 1 1.8-.6 2.7-1.1.6-2.2.7-2.6.3-.4-.3-.4.2 0 1.3.5 1.1.9 1.4 1.2.7.2-.7.8-1 1.2-.7.5.3.7 1.2.4 2-.4.8-1 1.2-1.5.9-.5-.3-.9 0-.9.6 0 .7.8.9 2.2.4 2-.6 2.1-.5.9 1-.7.9-1 1.6-.5 1.7.5 0 0 .4-1.1.9-1.8.8-1.8.9-.2.9 1 .1 1.6.5 1.2 1.1-.3.5.3 1.8 1.4 2.9 1.4 1.4 1.6 2.1.6 2.4-.7.3-1.7-.5-2.3-1.9-.8-1.5-1.7-2.2-2.7-1.8-.8.3-1.5.8-1.5 1.1 0 .3.7.2 1.6-.1 1.2-.5 1.5-.2 1 .9-.3.9-.2 1.4.3 1.1.5-.3 1.1.1 1.5.9.3.8 1.1 1.2 1.9.9.8-.3 2 .3 2.8 1.2 1.2 1.5 1.2 1.6-.9 1-1.5-.5-2.2-.3-2.2.5 0 .7.3.9.6.6.4-.3 1.5-.2 2.6.4 2.2 1.2 3.9.4 3.2-1.6-.4-.8-1.1-1.2-1.7-.8-.6.4-.7.1-.2-.7.6-.9.4-1.1-.5-.5-.9.6-1.1.4-.5-.5.6-.9.4-1.1-.5-.5-.9.5-1.1.4-.6-.4.4-.6 1.2-.9 1.7-.6.5.4.9.1.9-.5 0-.7-.7-1-1.5-.6-1.7.6-1.6-1.2.2-3.1 1.6-1.8 2.8-1.6 1.4.1-.9 1-.9 1.6-.1 2.1.6.4.9 1.3.6 2.1-.3.7-.1 1.6.4 1.9.6.4 1 .2 1-.4 0-.6 1-1.5 2.3-2.1 2.1-1.1 2.1-1 .3.4-1.1.9-1.7 1.9-1.3 2.2.4.4 1.3.1 2.1-.5 1.7-1.5 2.9 0 1.9 2.5-.4 1.2-.3 1.5.5 1 .7-.4 1.2-.2 1.2.6 0 .9.3.9 1-.2 1.5-2.3 1.2-.6-.4 2.5-.8 1.4-1.7 2.2-2 1.6-.4-.5-.1-1.3.5-1.7.8-.4.7-.9-.2-1.5-2.2-1.4-3.3-1-1.9.6.7.8.9 1.5.5 1.5s-.2.6.4 1.4c.9 1 .8 1.6-.4 2.6-.8.7-1.5 1.7-1.5 2.3 0 .6.7.2 1.5-.9 1.3-1.6 1.6-1.7 2.5-.4.9 1.2 1 .9.4-1-.6-2.2-.5-2.3.9-1.2.8.7 1.4 2 1.2 3-.1.9 0 1.2.2.5s1.1-.9 1.9-.6c1.2.4 1.2.8.2 2.2-.9 1.2-.7 1.1.9-.2 2-1.8 2.2-1.8 3.2 0 .6 1 1.1 1.3 1.1.6 0-.6-.4-1.5-1-1.8-.5-.3-1-1.2-1-1.8 0-.7 1.1 0 2.4 1.5 1.9 2.1 2.5 2.4 3 1.2.3-.9.1-1.2-.4-.9-1.1.7-1.4-.8-.4-1.8.9-.8 3.5.4 2.9 1.3-.3.5 0 1.2.6 1.6.7.4.9.3.5-.4-.3-.6-.2-1.3.3-1.6.4-.3.7-2 .5-3.8-.1-1.8 0-2.7.3-2 .2.6.9 1 1.4.6.5-.3.9 0 .9.6s.4.9.8.6c.5-.3.8.8.7 2.4-.1 1.6.2 3.5.8 4.2.6.9.7.8.3-.5-.6-2-.2-2.1 2.6-.6 1.5.8 2.3.8 3.2-.1.8-.9.7-1.1-.4-1-3 .4-3.9 0-3.4-1.8.5-1.3.4-1.4-.4-.3-.7.9-1.2 1-1.6.2-.4-.6-.2-1.1.4-1.1.6 0 .9-.4.5-.9-.3-.5-.1-1.2.5-1.6.6-.4.8-1.1.5-1.6-.4-.5-.1-.9.4-.9 1.4 0 1.4 1.3 0 2.7-.9.9-.2 1.1 2.9.8 2.6-.2 4.7.2 5.9 1.1 1 .9 1.2 1.2.5.9-1.2-.6-1.2-.3-.2 1.5s1.4 2 2.1.9c.5-.8.9-1 .9-.5s.8.2 1.7-.5c1.4-1.2 1.6-1.2 1.1.2-.3.9-.2 2.2.4 3 .8 1.1.9 1.1.5-.3-.4-1.2 0-1.6 1.4-1.5 1 .1 1.9.5 1.9.9s.5.8 1.1.8c.8 0 .9-.4 0-1.3-.6-.8-.8-1.7-.5-2 .4-.4-.3-.4-1.5-.2s-1.9 0-1.6-.5c.3-.5-.4-.7-1.5-.5-1.1.2-2-.1-2-.7 0-.7-.7-.3-1.6.8-.8 1-1.2 1.3-.8.5.4-.8-.4-2.2-2.1-3.5-2-1.6-2.3-2.3-1.2-2.3.9 0 1.4.3 1.2.7-.2.3.6 1.2 1.7 1.9 1.9 1.2 2 1.1 1.4-.6-.5-1.6-.5-1.6.6-.2 1.4 1.7 4.8 2.2 4.8.7 0-.5.5-.6 1.2-.2.7.5.9.2.5-.9-.3-.8 0-1.8.8-2.1 1.8-.6.9 2.4-1.2 4.1-.9.7-1 1.3-.4 1.7.5.4 1.6-.3 2.4-1.5.9-1.3 1.7-1.6 2.2-1 .3.6 1.1 1.1 1.8 1.1.8 0 .8-.3-.1-1.2-.7-.7-1.2-1.7-1.2-2.2 0-.6.7-.1 1.5 1.2 1.3 1.8 1.9 2 3.5 1 1.5-.9 2.4-.9 4.4.2 2.9 1.5 3.4 2.7 1.1 2.7-.8 0-1.2-.4-1-.8.7-1-2.2-1.9-4-1.3-.8.4-1.2 1-.9 1.6.3.5 1.1.5 1.9-.2.9-.8 1.4-.7 1.8.3.4 1-.2 1.3-1.9 1.1-2.4-.2-3.2 1-1.4 2.1.6.3 1 .1 1-.4 0-.6.4-1.1.9-1.1s.7.8.4 1.9c-.3 1 0 2.2.5 2.5.6.4.8-.2.5-1.4-.3-1.2 0-2 .6-2 .7 0 .9.5.5 1.2s-.3.8.4.4c.6-.4.8-1.4.5-2.4-.6-1.4-.4-1.5.9-.5.8.7 1.8.9 2.3.5.4-.4.4.4 0 1.8-.7 2.4-.7 2.4.8.5 1.3-1.7 1.3-2.1.2-2.8-1.3-.7-1.1-5.5.2-6.7.3-.3.3.5 0 1.7-.3 1.6-.1 2.3 1 2.3.9 0 1.1-.5.7-1.3-.5-.8-.2-.7 1 .2 1.5 1.3 1.7 1.2 1.2-1.4-.3-1.5-.2-2.4.2-2 .7.6.8 1 1.1 3.6 0 .5.5.8.9.5 1.1-.6.9 3.6-.2 5.3-.7 1-.6 1.2.4.6s1.2-.4.7.9c-.4 1.1-.3 1.5.4 1.1.6-.4.8-1.3.5-2.1-.6-1.7-.1-1.7 2.6-.3 1.5.8 1.9.8 1.4 0-.4-.6-.3-1.1.3-1.1.5 0 1.1.6 1.4 1.2.2.7.3.4.1-.7-.2-1.5.3-2.1 1.7-2.2 1.8-.2 1.9 0 .7 1.5-.9 1.3-.7 1.2 1-.2 2.3-2 3.1-.9 1 1.2-.7.7-.9 1.2-.4 1.2.4 0 1.4-.6 2.1-1.4 1.2-1.2 1.2-1.6 0-2.6-.8-.7-1.5-.9-1.5-.5s-.7.2-1.5-.5-1.5-.8-1.5-.3-.7 1-1.5 1-1.2-.4-.9-.9c.3-.4 0-.8-.5-.8-.6 0-1.1.5-1.1 1.1 0 .5-.6.7-1.2.3-.9-.5-.9-.2.1.9.7.9.9 1.7.3 1.7-.5 0-1.5-.7-2.2-1.5-.9-1.1-.9-1.5-.1-1.5.7 0 1-.4.6-.9-.3-.5-.1-1.2.5-1.6.6-.4.8-1.1.5-1.6-.4-.5-.1-.9.4-.9 1.4 0 1.4 1.3 0 2.7-.9.9-.2 1.1 3 .8 2.2-.2 4.1 0 4.1.4s.7.8 1.5.8 1.5-.4 1.5-.9c0-.4-.5-.8-1.2-.8-.6 0-.3-.7.8-1.5 1-.8 2.4-1.4 2.9-1.5.6 0 .4.4-.4.9-1.9 1.2-2.1 4.9-.3 5.6 1.1.4 1.2.8.2 2-.9 1-.9 1.5-.1 1.5.6 0 1.1-.4 1.1-.8s.9-.8 1.9-.9c1.4-.1 1.8.3 1.4 1.5-.4 1.4-.3 1.4.5.3.6-.8.7-2.1.4-3-.5-1.4-.3-1.4 1.1-.3.8.8 1.3 2.1 1.1 3-.5 1.5-.4 1.5.6-.1.6-.9 1.6-1.7 2.2-1.7.9 0 .9.3 0 1.2-1.5 1.5-1.6 2.8-.2 2.8.6 0 .9-.6.8-1.3-.2-.6.4-1.1 1.2-.9 1.2.3 1.3.1.3-.9-2.2-2.2-1.4-3.3.9-1.3 2 1.6 2.1 1.7.9.1-1.3-1.6-1.2-1.7 1.7-1.2 3.2.5 5.4-1.1 3.3-2.5-.9-.5-.8-1 .4-2 1.3-1.1 1.5-1 1 .2-.7 1.8 4.9 1.8 8.2 0 2.8-1.6 4 1 1.5 3.5-1.6 1.6-1.6 1.7 0 1 1-.3 2-.2 2.3.3.4.6.1 1-.5 1s-.8.5-.5 1c.3.6 1.1 1 1.7 1 .6 0 .8-.3.5-.6-.3-.4.5-1.6 1.9-2.6 2.3-1.9 2.6-1.9 4.3-.4 1.3 1.2 2 1.3 2.9.4.9-.9 1.5-.9 2.3-.1 1.3 1.3 3.9.6 3.9-.9 0-.6-.6-.6-1.4.1-1.9 1.6-2.8 0-1-1.7.8-.7 1.4-1 1.4-.6 0 .3.8 0 1.7-.7 1.5-1.2 1.6-1.2.9.6-.6 1.6-.5 1.8.5.7 1-.9 1-1.5.1-2.4-.7-.7-1.2-.8-1.2-.2 0 .5-.5.2-1.1-.6-.9-1.3-1-1.2-.5.3.3 1 .2 1.5-.3 1.2-.5-.3-1.2-.1-1.6.5-.4.6-1 .8-1.5.5-.5-.3-1.4.4-2 1.5-.6 1.1-1.5 1.8-2.1 1.4-.6-.3.1-1.6 1.6-3 1.5-1.3 3-2.2 3.4-2 .4.3 1.3-.5 2-1.6 1.1-1.8 1.1-2-.3-1.5-1.5.6-1.4.4.1-1.8 1-1.3 2.2-2.5 2.7-2.5s.2-.8-.5-1.8c-1.1-1.4-1.1-1.5 0-.5 2 1.8 4 .5 3.5-2.3-.5-2.5.9-3.3 2.2-1.2.5.7.3.8-.7.3-1.1-.7-1.2-.6-.3.6 1.6 2.2 1.1 4.4-1 4.4-1.1 0-2.1.6-2.4 1.4-.3.8 0 1.1.7.7.7-.5 1-.2.9.6-.2.7-1.1 1.8-2 2.3-1.5.9-1.4 1.1.8 2.2 1.3.6 2.2.8 1.9.3-.3-.4.2-1.3 1-2 1.2-1 1.8-1 2.9-.1 1.1.9 1.6.9 2.2 0 .4-.7.3-.9-.3-.6-.6.4-1.7-.1-2.4-1-1.2-1.4-1.1-1.5 1.1-.8 2.4.7 2.4.7.5-.8s-1.9-1.6-.2-2.2c1.7-.7 1.7-.8 0-2.1s-1.7-1.3 0-1.4c1 0 2-.7 2.3-1.5.4-.8.9-1.3 1.3-1.1.4.3.8-.5.8-1.7.2-2 .1-2-.8-.4-.8 1.4-1.4 1.6-2.5.6-.7-.6-1.1-1.6-.8-2.1.4-.6 1-.5 1.6.3.8 1.1.9 1.1.5-.1-.2-.8-1-1.5-1.7-1.5s-1.5-.7-1.8-1.5c-.3-.8-.1-1.2.3-.8.5.4 1.4.3 2.2-.4 1.1-.9.8-1.6-1.8-3.8-2.8-2.3-3-2.9-2-4.8.8-1.6.9-2.2.1-2-.7.2-1.9-.7-2.7-2-1.6-2.2-1.5-2.3 1.2-1.8 1.5.3 2.4.2 2-.2-.3-.4-1.9-.8-3.3-.8-4.2-.3-4.4-.3-3.6-1.7.5-.8.2-.8-.9.2-1.9 1.5-2.3.1-.5-1.7.8-.8.8-1.5-.3-2.8-1.2-1.6-1.2-1.7.4-1.1 1.1.4 1.6.3 1.2-.4-.4-.5-1.6-.7-2.8-.4-2.1.6-2.2.6-.3-.9 1.7-1.4 1.8-1.6.3-1.6-.9 0-1.7-.5-1.7-1.1 0-.5.5-.7 1.2-.3.7.4.8.3.4-.5-.4-.6-1.2-.9-1.7-.6-1.5 1-1-1.2.6-2.5.8-.7 1.5-1.7 1.5-2.3 0-.6-.7-.1-1.6 1.1-.8 1.2-2.1 2.2-2.9 2.2-2 0-2.4 2.3-.7 4.2 1 1.3 1.1 1.8.3 1.8-.7 0-1 .4-.7.9 1.3 2.1-4.1 3.8-6 1.8-.4-.3.6-.4 2.1-.1 1.6.3 2.4.1 2.1-.5-.4-.5-.2-1.2.4-1.6.5-.3 1-1.1 1-1.7 0-.6-.8-.4-1.8.5-1 1-2.3 1.7-2.8 1.7-.4 0 .1-.7 1.3-1.5 2.1-1.5 2.2-5.2.2-3.9-.5.3-.9 0-.9-.6 0-.7.7-.9 1.6-.6 1.4.5 1.5.4.4-.9-.9-1.1-1.6-1.2-2.5-.5-.9.7-1.6.5-2.6-.7-1.2-1.6-1.2-1.7.2-.5 1.4 1 1.9.8 3.3-1.3.9-1.4 1.2-2.5.7-2.5s-1.3.5-1.6 1c-.3.5-1.2 1-1.8 1-.7 0-.6-.4.3-1 .8-.5 1.1-1 .6-1-.5 0-.3-.6.3-1.4 1.2-1.4.2-2.7-2.9-3.9-1-.4-.7-.6.8-.6 1.2-.1 2.2.4 2.2 1 0 .5.5.7 1 .4 1.7-1-.8-3.5-2.8-2.8-1.3.4-1.4.2-.4-.4 1.4-1.1 1.3-3.4-.3-4.6-.6-.4-.4-1.1.5-1.7.8-.5 1.1-1 .5-1-.5 0 .2-.8 1.8-1.8 1.5-1 2.4-2.2 2-2.5-.3-.4-1.4 0-2.4.9-1.3 1.2-1.9 1.2-2.5.3-.4-.7-.3-1 .3-.6s1.7 0 2.4-.9c1.1-1.3.9-1.4-1.7-.9l-2.9.7 2.5-1.4c1.7-1 2.7-1.1 3.2-.4.4.6.8.9.9.6 0-.3.2-1.6.5-2.9.4-2 .2-2.2-1-1.2-1.8 1.5-3.4-.5-1.7-2.2.9-.9 1-.7.5.8-.7 1.8-.6 1.9 1.1.5 1-.8 2-1.4 2.2-1.2.3.2.7.1 1.1-.2.3-.3 0-.6-.7-.6s-.9-.5-.6-1.1c.9-1.4 2.8-.6 3.1 1.4.1 1.1-.2 1.5-.9 1.1-.9-.5-.8-.3 0 .6.8.9.9 1.9.2 3.2-.6 1.2-.6 1.8.1 1.8.5 0 1-.7 1-1.6 0-1.1.5-1.4 1.6-1 .9.3 2 .6 2.5.6.6 0 .7.5.3 1.2-.4.7-.3.8.5.4 1.3-.9.5-2.6-1.2-2.6-.7 0-1.8-.9-2.5-2.1-1.2-1.9-1.1-2 .7-1.4 1.4.4 2.3 0 3-1.3.6-1.1.7-2.2.4-2.6-.3-.3.3-.6 1.4-.6 1.2 0 2.5-1.1 3.1-2.6.7-1.5 1.7-2.3 2.5-1.9.6.3.2-.2-1-1.1-2.7-1.9-2.9-3.1-.8-3.1.8 0 1.5.5 1.5 1 0 .6.3.7.6.4.4-.4.1-1.3-.5-2.1-1-1.1-.9-1.6.5-2.4 1.5-.8 1.5-.9-.1-1.5-1.6-.7-1.2-2.7.6-2.7.6 0 .8.4.5.9-.3.5.1 1.2.9 1.5 1.3.4 1.3.2.5-1.4-.5-1-1.5-2.2-2-2.5-.6-.4-.2-1.8 1-3.6 1.2-1.6 1.7-2.9 1.1-2.9-.5 0-1.3.9-1.6 2-.4 1.1-1 1.8-1.5 1.5-.5-.3-.7.6-.4 1.9.2 1.4 0 2.8-.6 3.1-.6.4-.8 1-.5 1.5.3.5 0 1.2-.6 1.5-1.9 1.2-2.1-.3-.4-2.9 1.5-2.2 1.5-2.7.3-3.1-1.2-.5-.9-1.3 1.4-3.7 2.9-3.1 2.9-3.2.8-4.3-1.1-.6-1.7-1.4-1.3-1.9.4-.4-.1-.4-1.2 0-1.6.6-1.8.5-.7-.7.6-.7 1.2-1.8 1.2-2.3 0-.6-.5-.4-1 .4-.8 1.3-1 1.3-1-.2 0-.9-.5-2-1.1-2.4-.8-.4-.9.1-.4 1.7.7 2.1.6 2.2-.8 1-.9-.7-1.4-1.7-1.1-2.2.3-.5-.2-1.9-1.1-3.1-1.4-2-1.6-2-1.3-.4.2 1-.3 2.1-1.1 2.4-.8.3-1.1 0-.7-.6.3-.6-.1-1.5-.9-2-.9-.5-2.5-2.2-3.6-3.8-1.1-1.6-1.9-2.2-1.8-1.4.3 2.7-.1 4-1.1 4s-.8-3 .5-6.1c.7-1.8-2.2-2.3-4.2-.6-.8.5-1.3.6-1.3 0 0-.5.6-1.5 1.3-2.3.6-.8.8-1.2.4-.8-.5.3-2-.3-3.3-1.5-2.7-2.3-2.4-3.8.3-1.6.9.8 1.4.9 1 .2-.4-.6-.1-1.4.5-1.7.9-.4.8-.5-.2-.4-2.2.3-6-1.2-6-2.3 0-.6.5-.7 1-.4.6.3 1 .1 1-.5s-1.1-.8-2.5-.6c-1.3.3-2.7 0-3-.5-.6-.9.5-1.2 3.5-1 .9 0 1-.2.3-.5s-.9-1.2-.6-2.1c.4-1.1.2-1.4-.5-.9-.6.3-1.5-.2-2.1-1.1-.6-1-1.1-1.2-1.1-.6 0 .7-.5 1.3-1.1 1.3-.5 0-.7-.5-.4-1 .3-.6.1-1-.5-1s-.8-.6-.4-1.3c.6-1 .4-1-.7 0-1.9 1.8-3.4 1.6-1.9-.2.7-.9 1.1-1.7.9-1.8-.2-.2-2.1-1.5-4.1-3-2-1.5-4-2.7-4.5-2.7-.4 0 .9 1.2 3 2.7 4.9 3.5 3.9 4.3-1.3 1-2.6-1.8-3.7-3.2-3.4-4.2.4-.8.9-1.3 1.3-1 .4.2.8-.2.8-1 0-1.9-2.4 0-3.2 2.5-.3 1-1.1 1.7-1.8 1.6-2.4-.4-5.7-2.7-5.2-3.7.4-.5.1-.9-.4-.9-.6 0-1.1.5-1.1 1.1 0 .6-.6.9-1.4.6-.7-.3-1.8-.1-2.4.5-.8.8-1.6.8-2.7-.2-.8-.7-1.5-.9-1.5-.5s-.8.1-1.7-.6c-1.1-1-1.4-1-.9-.2.4.8.2 1.3-.5 1.3-.6 0-.9-.8-.6-2 .3-1.1.1-1.8-.4-1.4-.5.3-.9 1.1-.9 1.7 0 .7-.9 1.3-2 1.3-1.5 0-1.9-.5-1.5-2.1.2-1.1-.1-.8-.7.7-1.4 3.4-3.1 3.8-1.9.5.7-1.7.6-2.4-.4-2.4-.7 0-1 .8-.7 2.1.4 2.1.4 2.1-1.2.1-1.1-1.3-1.4-1.5-1.1-.4.4 1 0 1.6-1 1.6s-1.4-.7-1-2.1c.3-1.2.2-1.5-.1-.8-.5 1-.9 1-2.2 0-1.5-1.2-1.6-1.1-.3.5 1.1 1.4 1.1 2.1.3 2.9-.9.9-1.2.8-1.2-.4 0-.9-.4-2-1-2.3-.6-.3-.7.1-.4 1 .7 1.7-1.6 1.8-2.8 0-1-1.3-1.8-.2-2.4 3.1-.3 2.1-.2 2.5.5 1.5.8-1.2 1.2-1.2 2.4-.2 1 .8 1.7.9 2.2.1.3-.5-.1-1-1-1s-1.4-.4-1-1c.8-1.3 3.5-.1 3.5 1.6 0 .8.5 1.4 1 1.4.6 0 .9-.3.9-.8-.5-2.7.1-3.4 1.8-2.1.9.8 1.4.9 1 .3-.3-.6 0-1.1.8-1.1s1.1.5.8 1c-.3.6-.2.7.3.4.5-.3 1 .3 1 1.4 0 1-.4 2-.8 2-.4.1-1.2.2-1.7.3-.5 0-1.3.4-1.7.9-.4.4-1.6 0-2.6-.9-1.3-1.3-2.1-1.4-3.1-.6-1 .9-1.7.8-2.5 0-.7-.7-1.2-.8-1.2-.2 0 .5.5 1.5 1.1 2.1.8.8.8 1.3 0 1.8-.6.3-1 .3-.9-.2.1-.4-.4-1.9-1.2-3.3-1.7-3-1.9-5.2-.5-6.2.6-.5.5-.8-.3-.8-.7 0-1-.5-.7-1 .3-.6.4-1 .1-1-.3 0-.6.1-.7.2zm30.9 5.2c.6.4 1.8.4 2.4 0 2.4-1.5 5-1.1 5.8 1 .5 1.2.9 1.5.9.8.1-.7.6-1 1.2-.6.8.5.6 1-.5 1.6-1.7.9-1.3 2.8.5 2.8.6 0 .7-.5.3-1.2-.4-.7-.3-.8.4-.4s1.2.1 1.2-.7c0-.9.9-1.4 2.3-1.3 1.3.1 2.1.7 1.9 1.5-.2.9.3 1.1 1.3.7.9-.3 1.8 0 2.1.8.3.8 1.6 1.3 3 1.1 1.8-.2 2.2.1 1.4 1-.7.9-.6 1.6.5 2.5 1.2 1 1.5 1 1.5-.1.1-.8.7-.3 1.4 1 .9 1.7 1.5 2 2.1 1.1.5-.9 1-.9 1.9 0 .8.8.7 1.4-.7 2.1-1.4.8-1.5 1.4-.6 3.1.6 1.1 1.4 1.6 1.8 1.1.3-.5 1.4-.1 2.4.9.9 1 1.3 1.8.7 1.8-.5 0-1 .5-1 1.1 0 .5.4.8.9.5.4-.3 1.9.6 3.1 1.9 1.4 1.5 1.8 2.5 1.1 2.5-1.1 0-1.1.3-.1 1.5.9 1.1 1.6 1.3 2.4.5 1.9-1.9 2.7-1 2.2 2.4-.6 3.8 1 5.8 2.8 3.5.9-1.2 1.5-1 3.3.9 1.3 1.2 2.3 2.5 2.3 2.7v1.7c0 .6.9.3 2-.7s2-1.3 2-.7c0 .7-.4 1.2-.9 1.2s.5 1.5 2.2 3.3c1.8 1.9 3.4 3.3 3.7 3.1.3-.1 1.2.1 2 .6 1.3.8 1.2 1.2-.5 2.7-1.1 1-1.7 1.4-1.3.9.8-1-1.4-3.6-2.5-2.9-.4.2-.6-.1-.5-.8.2-.6-.3-1.4-.9-1.6-.7-.3-1.3.1-1.3.9 0 .7-.9-.2-2-2-2.3-3.8-3.3-4-4.9-1-.9 1.8-1 1.9-.5.3.3-1.1.8-3.1 1-4.4.4-2.1.3-2.2-1-1.2-.8.7-1.3 1.8-1 2.6.3.7.1 1.6-.5 2-.7.4-.8 0-.4-1.1.5-1.3.3-1.5-.8-.9-1.2.7-1.2.6-.1-.7 1.1-1.4 1-1.8-.7-2.8-1.7-.9-2.1-.8-2.1.5 0 .9.4 1.3 1 1 .6-.4.7.1.3 1.1-.5 1.5-.7 1.5-1.5 0-.5-.9-.8-2.2-.7-2.8.3-2.6-.1-3.9-1.1-3.3-.6.4-.7 1.2-.3 1.8.4.8.1.7-.9-.1-1.4-1.1-1.8-1-2.6.5-.9 1.5-1 1.3-.9-.9.2-2.1.5-2.4 1.8-1.7 1.1.6 2.1.4 2.9-.6.9-1.1.8-1.4-.9-1.4-5.4-.2-6.5-.3-5.3-.8 1.9-.7.4-2.3-1.6-1.6-1.4.5-1.5.3-.4-.8.9-1 1.5-1 2.4-.1 1.9 1.9 2.9 1.4 1.6-.7-.7-1.1-1.6-1.7-2-1.5-.5.3-.8.2-.7-.3.4-2.4-.3-2.5-1.7-.3-1.5 2.4-1.5 2 .1-2.5.6-1.7.3-1.6-1.5.5-1.2 1.4-1.9 1.9-1.5 1.3 1.1-2.2 1.4-5.3.5-5.3-.5 0-1.1-.8-1.4-1.8-.4-1-2.1-2.6-3.9-3.5-2.4-1.3-2.6-1.6-.7-1.1 2.2.6 2.3.5 1.2-.9-.8-.9-2-1.3-2.9-1-1.2.5-1.4.1-.8-1.8.7-2.1.6-2.2-.8-1-.9.7-1.4 1.7-1.1 2.2.9 1.5-.6 1-2.4-.7-1.5-1.5-1.7-1.5-2.4.2-.7 1.6-.8 1.6-.4-.3.4-2.5-1.8-5.1-2.9-3.3-.3.5-.1 1 .6 1s.9.3.6.6c-.4.4-1.8-.1-3.1-1-3-1.9-4.5-2.1-2.8-.4.7.7 1.2 1.6 1.2 2.2 0 .5-.6.1-1.4-.9-.8-1.1-1.1-2.6-.8-3.5.4-1.2.2-1.3-.9-.3-1.6 1.5-3.9 1.7-3.9.3 0-.5.7-.7 1.5-.4 1.1.5 1.3.2.9-.9-.5-1.5-3.4-1.3-3.4.3 0 .4-2.4.7-5.2.6-3.5-.1-5.2-.6-5-1.4.1-.7-.2-1.2-.8-1.2-.5 0-1 .8-1 1.7 0 1.5-.2 1.6-1 .3-.7-1.1-.4-1.8 1.2-2.6 2.2-1.2 9.6-1.2 11.6 0zM89.5 24c-.2 1.1 0 2 .6 2 .5 0 .9.7.9 1.6 0 1.2-.5 1.1-2-.7-2.3-2.9-2.6-1.8-.4 1.9 1.5 2.6 1.5 2.6-.1.4-2.1-2.7-3.1-2.8-3.7-.4-.5 1.9-5.4 2.8-7.2 1.3-.6-.5-1.5-.9-2.1-.9-.5 0-1.1-.6-1.3-1.4-.3-1.1-.2-1.1.6 0 .7 1.1 1 1.1 1.6-.3.3-.9 1-1.4 1.5-1.1.5.3 1.2-.1 1.5-1 .4-.9.9-1.4 1.3-1.1.3.4 1.2.2 2-.4.9-.9 1.7-.8 2.7 0 1 .9 1.6.8 2.6-.4 1.7-2 2-1.9 1.5.5zm10 4c.3.6-.1.7-.9.4-1.8-.7-2.1-1.4-.7-1.4.6 0 1.3.4 1.6 1zm8.5-.6c0 .2-.7.9-1.5 1.6-1.3 1.1-1.4 1-.9-.4.5-1.4 2.4-2.3 2.4-1.2zm3.4.4c.3.5-.1.9-.9.9s-1.5-.4-1.5-.9c0-.4.4-.8.9-.8.6 0 1.2.4 1.5.8zm6.3.3c-.9.6-1.4 1.5-1.1 2.1.4.7.2.8-.5.4-1.4-.9.3-3.6 2.3-3.6.6 0 .3.5-.7 1.1zM96.8 31c-.7 1-1.4 1.7-1.7 1.5-.4-.4 1.8-3.5 2.5-3.5.2 0-.1.9-.8 2zm24.2-.6c-.7.7-1.3.7-2 0-.6-.6-.3-1 1-1s1.6.4 1 1zm-33.5 1.5c-.3.2-1.6.6-2.8.8-1.5.2-1.8 0-.9-.5 1.4-.9 4.5-1.2 3.7-.3zm24.5-.5c0 .2-.8 1-1.7 1.7-1.6 1.3-1.7 1.2-.4-.4 1.3-1.6 2.1-2.1 2.1-1.3zm4.1 1.3c1.3 1.6 1.2 1.7-.3.4-1-.7-1.8-1.5-1.8-1.7 0-.8.8-.3 2.1 1.3zM77 34.4c0 .3-.4.8-1 1.1-.5.3-1 .1-1-.4 0-.6.5-1.1 1-1.1.6 0 1 .2 1 .4zm65.4 1.1c.3.8.1 1.5-.4 1.5-.6 0-1-.7-1-1.5s.2-1.5.4-1.5.6.7 1 1.5zm-58.9.5c.3.6-.1.7-.9.4-1.8-.7-2.1-1.4-.7-1.4.6 0 1.3.4 1.6 1zm-4 2c.3.6-.1.7-.9.4-1.8-.7-2.1-1.4-.7-1.4.6 0 1.3.4 1.6 1zm68.9 1.5c.3.8.1 1.5-.4 1.5-.6 0-1-.7-1-1.5s.2-1.5.4-1.5.6.7 1 1.5zm-88.8 2c0 1.3-.2 2.2-.5 2-.2-.3-1.4.3-2.5 1.2-2.1 1.8-2.1 1.8-.3-.4 1.1-1.2 1.6-2.6 1.3-3.2-.3-.5 0-1.2.6-1.4.7-.3 1.3-.6 1.4-.6v2.4zm6.9-1.5c.3.5.1 1-.4 1-.6 0-1.1-.5-1.1-1 0-.6.2-1 .4-1 .3 0 .8.4 1.1 1zm2.2 2.5c0 .8-.4 1.2-.9.9-.5-.3-.6-1-.3-1.5.9-1.3 1.2-1.1 1.2.6zm81 1.7c-.3.8-.6.5-.6-.6-.1-1.1.2-1.7.5-1.3.3.3.4 1.2.1 1.9zM57 48c0 .5-.5 1-1.1 1-.5 0-.7-.5-.4-1 .3-.6.8-1 1.1-1 .2 0 .4.4.4 1zm10 1.6c0 .8-1.9 1.3-2.4.6-.3-.5.1-.9.9-.9s1.5.2 1.5.3zM60.8 55c-.7 1-1.4 1.7-1.7 1.5-.4-.4 1.8-3.5 2.5-3.5.2 0-.1.9-.8 2zm3.3 3.7c1.3 1.7 1.3 1.7-.6.3-1.1-.8-2.2-1.6-2.4-1.7-.2-.2 0-.3.6-.3s1.7.8 2.4 1.7zM159 62c0 .5-.5 1-1.1 1-.5 0-.7-.5-.4-1 .3-.6.8-1 1.1-1 .2 0 .4.4.4 1zm3.5.8c-.3.3-1.1 0-1.8-.7-.9-1-.8-1.1.6-.5 1 .3 1.5.9 1.2 1.2zm-109.4.9c1.3 1.6 1.2 1.7-.3.4-1-.7-1.8-1.5-1.8-1.7 0-.8.8-.3 2.1 1.3zm120.3 2.1c.3.5-.1.9-.9.9s-1.2-.4-.9-.9c.3-.4.7-.8.9-.8.2 0 .6.4.9.8zM34 68c0 .5-.5 1-1.1 1-.5 0-.7-.5-.4-1 .3-.6.8-1 1.1-1 .2 0 .4.4.4 1zm4.4 1.6c.3.8.2 1.2-.4.9-.6-.3-1-1-1-1.6 0-1.4.7-1.1 1.4.7zm142.4 3.9c-.3.3-.9-.2-1.2-1.2-.6-1.4-.5-1.5.5-.6.7.7 1 1.5.7 1.8zm.1 5.7c-.5 1-1.1 1.8-1.2 1.8-.2 0-.3-.8-.3-1.8s.6-1.9 1.3-1.9c.8 0 .9.6.2 1.9zm3.2 4.1c-.6.8-.9 1.7-.6 2 .3.4.2.5-.2.2-.8-.6-3.3 1.4-3.3 2.7 0 .5.4.7.9.3 1.6-.9 2.3 1.3 1.1 3.5-.8 1.4-1.7 1.9-3 1.5-1.5-.5-1.8-.2-1.5 1.3.2 1-.1 2.5-.6 3.3-.7 1.1-1.3.9-3.1-1-1.3-1.5-1.5-1.9-.5-1.1 1.6 1.2 1.8 1.2 1.7-.1-.4-2.8 0-3.8 2-4.9 1.1-.6 2-.7 1.9-.3-.3 1.7.1 2.4 1 1.8.6-.3.4-1.9-.5-4-1.3-3.2-1.3-3.4.3-2.8 1.6.6 1.7.5.3-1.3-1.4-1.7-1.4-1.8.1-.6 1.3 1 1.9.9 2.9-.3.7-.8 1.5-1.5 1.7-1.5.3 0 0 .6-.6 1.3zm-155 6.4c1.3 1.6 1.2 1.7-.3.4-1-.7-1.8-1.5-1.8-1.7 0-.8.8-.3 2.1 1.3zM175 90c0 .5-.5 1-1.1 1-.5 0-.7-.5-.4-1 .3-.6.8-1 1.1-1 .2 0 .4.4.4 1zm-2 3c0 .5-.5 1-1.1 1-.5 0-.7-.5-.4-1 .3-.6.8-1 1.1-1 .2 0 .4.4.4 1zM36.7 95.7c.1 2.4.1 2.5-.7.8-1.1-2.6-1.2-3.5-.2-3.5.4 0 .8 1.2.9 2.7zm3.7-1.9c.3.5-.1.9-.9.9s-1.2-.4-.9-.9c.3-.4.7-.8.9-.8.2 0 .6.4.9.8zm130.5 1.5c-.2.1-1.3.9-2.4 1.7-1.9 1.4-1.9 1.4-.6-.3.7-.9 1.8-1.7 2.4-1.7.6 0 .8.1.6.3zm-4.9 2.2c0 .1-1 1-2.2 2.1-1.4 1.2-1.8 1.3-1 .3.6-.9 1-1.8.7-2.1-.3-.2.2-.5 1-.5s1.5.1 1.5.2zM41 99.4c0 .3-.4.8-1 1.1-.5.3-1 .1-1-.4 0-.6.5-1.1 1-1.1.6 0 1 .2 1 .4zm122 3c0 .2-.6.9-1.4 1.5-1.1.9-1.6.9-2.2 0-.4-.7-.3-.9.4-.5.6.3 1.3.2 1.7-.4.6-1 1.5-1.4 1.5-.6zm-124.3 2.1c0 .8-.4 1.2-.9.9-.4-.3-.8-.9-.8-1.5 0-.5.4-.9.8-.9.5 0 .9.7.9 1.5zm.4 7.8c-1 .9-1.1.8-.5-.6.3-1 .9-1.5 1.2-1.2.3.3 0 1.1-.7 1.8zm122.9.1c0 .2-.7.7-1.6 1-.8.3-1.2.2-.9-.4.6-1 2.5-1.4 2.5-.6zm-122.6 3.1c-1.6 1.3-1.6 1.4-.1.9 1-.4 1.7-.1 1.7.6 0 .6-.4.9-.9.5-.6-.3-.9.4-.8 1.5.1 1.1.7 2 1.4 2 .6 0 1.5.4 1.8 1 .4.6-.3.9-1.6.7-1.2-.1-2.3.4-2.5 1.1-.1.7 0 .8.3.2.2-.5.9-1 1.5-1 .7 0 .7.5-.1 1.3-.6.8-.8 1.7-.4 2 .3.4 1.2-.1 1.9-1.1.8-.9 1.4-1.2 1.4-.5 0 .6-.4 1.5-1 1.8-1.6 1-1.2 2.3 1 3 2 .6 2 .7-.2 2.5-1.9 1.5-2 2-.9 3.4 1.1 1.3 1.1 1.9.1 3.1-.7.9-2 1.3-2.7 1-.9-.3-1.3 0-1 .7.2.7 1.4 1.2 2.6 1.1 1.3-.2 2 .1 1.6.7-.3.6-1.4 1-2.3 1.1-1.2 0-1.3.2-.3.6 1.1.5 1.1.7 0 1.4s-.9 1.4 1.1 3l2.5 2.1-2.7-1.6c-3.3-1.9-4.4-2.1-3-.4 1.4 1.9.8 5.9-1.1 7.3-.9.7-1.3 1.6-.9 2 .4.5.2.5-.5.1-.6-.3-1.4-.2-1.8.4-.3.5-.1 1 .5 1 .7 0 1 .6.8 1.2-.3.7-1 1.3-1.6 1.3-1.7 0-2.4 1.2-1.1 2.1.8.5 1 .3.4-.6-.5-.9-.4-1.1.4-.6.6.4 1.9.2 2.8-.6 1.4-1.1 1.6-1.1.8.1-.6 1.1-.4 1.3 1.1.8 1.4-.6 1.3-.3-.5 1.1-1.5 1.3-2.1 2.4-1.6 3.2.5.8.2 1.7-.7 2.4-.8.6-1.5 1.5-1.6 2.1-.1.5-.7 1.1-1.5 1.3-1.5.3-1.8-3.3-.4-5.5.4-.6.3-1.4-.1-1.7-.5-.3-.9-1.6-.8-2.8.1-1.6.7-2.2 2.1-2.1 2 .1 2 .1.1-1.3-1.3-.9-1.5-1.4-.6-1.4s.8-.6-.5-2c-1.6-1.8-1.4-2.4.7-2.1 1.1.1 3.2-4.1 3.3-6.7.1-1.2-.3-2.2-.9-2.2-.6 0 0-.9 1.3-1.9 1.6-1.2 2-2 1.2-2.5-.9-.6-.9-1.1 0-2.2.6-.8.8-1.4.4-1.4s-.2-.6.4-1.4c.9-1.1.8-1.7-.9-2.9-1.8-1.2-1.9-1.6-.5-2.7.8-.7 1.2-1.6.9-2.1-.3-.5.1-.9.8-.9.8-.1.7-.5-.5-1.4-1.3-1-1.5-1.6-.6-2.1.8-.6.5-1.3-1.2-2.6l-2.4-1.8 3.5-3c1.9-1.7 3.6-2.8 3.9-2.5.2.2-.4 1.1-1.5 1.9zm6.1.5c.3.6-.1.7-.9.4-1.8-.7-2.1-1.4-.7-1.4.6 0 1.3.4 1.6 1zm115.7.9c-.4 1-.1 1.2.9.6.8-.5 1.1-.4.6 0-1.4 1.6-3.6 1.4-3-.3.4-1 .2-1.3-.5-.8-.6.3-1.3.3-1.6-.2-.2-.4.6-.8 1.9-.8 1.6 0 2.1.4 1.7 1.5zm-116.7 3c-.3.2.3 1 1.3 1.8 1.6 1.3 1.5 1.3-.3.4-4.3-2.2-5.1-3-2.8-2.8 1.2 0 2 .3 1.8.6zm120 4c.3.5.2 1.2-.3 1.5-.5.3-.9-.1-.9-.9 0-1.7.3-1.9 1.2-.6zM45 128c0 .5-.2 1-.4 1-.3 0-.8-.5-1.1-1-.3-.6-.1-1 .4-1 .6 0 1.1.4 1.1 1zm-.3 6.5c0 .8-.4 1.2-.9.9-.4-.3-.8-.9-.8-1.5 0-.5.4-.9.8-.9.5 0 .9.7.9 1.5zm129.8 3.3c0 1.1.9 2.7 1.9 3.7 1.6 1.6 1.6 1.8 0 3.6s-1.1 2.5 1.9 2c.4 0 .7.4.7 1 0 .5.4.8.8.5 1.5-.9 5.6 5.4 4.4 6.6-.8.8 0 2 2.5 3.9 2 1.6 3.3 3 2.9 3-.3.1-1 .2-1.5.3-1.8.2-2.4 1.6-1.3 2.9.7.8 1 1.6.7 1.9-.3.3.1 1.1 1 1.8 2.1 1.7 1.9 2.7-.6 3.3-1.2.3-1.8.3-1.5 0 .8-.8-1.3-4.5-2.3-3.9-.4.3-1.2-.4-1.9-1.5-1.2-1.9-.6-2.4 2.1-2 1.2.2.8-.9-.8-2.6-.9-.8-1.3-2.3-1-3.2.3-1.2 0-1.8-1-1.8-1.1 0-1.3.6-.9 2.1.4 1.2.3 1.8-.1 1.3-.7-.6-1-1.7-1.4-6-.1-.5-.7-.5-1.3-.1-1 .6-1 .4 0-.7 1.8-2 1.5-3.4-.5-1.8-1.1 1-1.4 1-.9.1.4-.6.3-1.2-.3-1.2-1.2 0-4.1-2.8-4.1-4 0-.5 1.1.2 2.5 1.6 1.4 1.4 3 2.2 3.7 1.8.7-.4.1-1.2-1.5-2-1.4-.8-2.9-2.4-3.2-3.5-.6-1.7-.9-1.9-1.7-.8-.8 1.2-.9 1.1-.5-.1.2-.8.9-1.5 1.5-1.5.5 0 1.4-.3 1.8-.8.4-.4.2-.7-.5-.7s-1.1-.6-.8-1.4c.3-.8-.1-2-.8-2.6-.8-.7-1.2-1.7-.9-2.2.9-1.3 2.7.6 2.9 3zm-6.5-1.3c0 .2-.6.5-1.3.8-.8.3-1.4-.1-1.4-.8 0-.7.6-1.1 1.4-.8.7.3 1.3.6 1.3.8zM45.5 140c.3.6-.1.7-.9.4-1.8-.7-2.1-1.4-.7-1.4.6 0 1.3.4 1.6 1zm-.9 7.3c.1.9-.2 1.5-.7 1.1-.5-.3-.6-1-.3-1.6.5-.8.1-.9-1-.5s-1.5.3-1.1-.4c1-1.4 2.8-.6 3.1 1.4zm128.2 5.8c.9 1.2.9 1.6-.1 1.6-.7 0-1.4-.9-1.4-2-.1-1.1-.1-1.8 0-1.6.2.2.8 1.1 1.5 2zm-127.8.5c0 .8-1.9 1.3-2.4.6-.3-.5.1-.9.9-.9s1.5.2 1.5.3zm-3.6 2.2c.3.5-.1.9-.9.9s-1.5-.4-1.5-.9c0-.4.4-.8.9-.8.6 0 1.2.4 1.5.8zm136.6.6c0 .2-.7.7-1.6 1-.8.3-1.2.2-.9-.4.6-1 2.5-1.4 2.5-.6zm-139.4 3.1c.1.9-.4 1.1-1.4.7-1-.4-1.2-.7-.4-1 .7-.2.9-.9.5-1.5-.3-.7-.2-.8.2-.4.5.4 1 1.4 1.1 2.2zm140 1.4c.1.6 0 .7-.3.1-.2-.5-.9-.8-1.3-.5-.5.3-1.1.1-1.4-.4-.4-.5.2-.8 1.1-.7.9.2 1.8.8 1.9 1.5zm1.4 6.5c-.1.5.4 1.3 1.2 1.8 1.1.8 1.1.9 0 .6-.8-.2-1.3-.7-1.2-1.2.1-.5-.4-1.3-1.2-1.8-1.1-.8-1.1-.9 0-.6.8.2 1.3.7 1.2 1.2zm-141.6 2.2c.3.8.2 1.2-.4.9-.6-.3-1-1-1-1.6 0-1.4.7-1.1 1.4.7zm141.1 2.4c.3.6-.1.7-.9.4-1.8-.7-2.1-1.4-.7-1.4.6 0 1.3.4 1.6 1zm2.2 1.2c-.3.8-.6.5-.6-.6-.1-1.1.2-1.7.5-1.3.3.3.4 1.2.1 1.9zM38.5 173c-.3.5-.1 1 .6 1s1 .3.6.6c-.9.9-2.8-.6-2.2-1.7.4-.5.8-.9 1.1-.9.3 0 .2.4-.1 1zm147.3 5.5c-1.1 1.9-2.5 3.8-3.2 4.2-.8.5-.8.3 0-.8.6-.8 1-2.2.8-3.2-.1-1.1 0-1.6.3-1.3 1 .9 3.3-1.5 2.6-2.7-.3-.6-.1-.7.5-.3.8.4.5 1.8-1 4.1zM45.5 176c.3.6-.1.7-.9.4-1.8-.7-2.1-1.4-.7-1.4.6 0 1.3.4 1.6 1zm3-.1c.3.5.2 1.2-.3 1.5-.5.3-.9-.1-.9-.9 0-1.7.3-1.9 1.2-.6zm128.7.8c-.6.3-1 .9-.7 1.3.3.5.1 1.1-.4 1.4-1.1.7-.9-1.3.3-3.2.4-.7 1.1-1 1.5-.6.3.4 0 .9-.7 1.1zm-4 1.7c-.3.6-.7 1.5-.9 2.1-1 4.6-1.3 5.6-1.8 6.5-.4.6-1.1.8-1.6.4-.6-.3-1.9.2-3 1.2-1.2 1.1-2.3 1.4-2.9.8-.5-.5.1-1.7 1.6-3.1 1.3-1.2 2.4-1.7 2.4-1.2s.5.9 1.1.9c.6 0 .8-.7.5-1.6-.3-.8-.2-1.2.4-.9 1.1.7 2.8-2.4 2.5-4.6-.2-.9.3-1.6 1.1-1.6.7 0 1 .5.6 1.1zm-124.4 3.1c-.3.3-.9-.2-1.2-1.2-.6-1.4-.5-1.5.5-.6.7.7 1 1.5.7 1.8zm15.8-.1c0 1.4-.5 2.1-.9 1.7-.4-.4-.5-1.5-.1-2.4.9-2.4 1.2-2.1 1 .7zM113 180c0 .5-.4 1-1 1-.5 0-1-.5-1-1 0-.6.5-1 1-1 .6 0 1 .4 1 1zm21.5-.1c.3.5.2 1.2-.3 1.5-.5.3-.9-.1-.9-.9 0-1.7.3-1.9 1.2-.6zm10.5.1c0 .5-.4 1-1 1-.5 0-1-.5-1-1 0-.6.5-1 1-1 .6 0 1 .4 1 1zm-92.5 1c-.3.5-.1 1 .6 1s1 .3.6.6c-.9.9-2.8-.6-2.2-1.7.4-.5.8-.9 1.1-.9.3 0 .2.4-.1 1zm9 1c.3.6-.1.7-.9.4-1.8-.7-2.1-1.4-.7-1.4.6 0 1.3.4 1.6 1zm7.5-.6c0 .2-.7.7-1.6 1-.8.3-1.2.2-.9-.4.6-1 2.5-1.4 2.5-.6zm14 .1c0 .7-3 1.3-3.4.7-.3-.4.4-.9 1.5-.9 1-.1 1.9 0 1.9.2zm34-.1c0 .2-.7.7-1.6 1-.8.3-1.2.2-.9-.4.6-1 2.5-1.4 2.5-.6zm50 .6c0 .5-.2 1-.4 1-.3 0-.8-.5-1.1-1-.3-.6-.1-1 .4-1 .6 0 1.1.4 1.1 1zm7.2 1.2c-.7.7-1.2.8-1.2.2 0-1.4 1.2-2.6 1.9-1.9.2.3-.1 1.1-.7 1.7zm-89.8 0c-.5.8-.1.9 1.2.4 1.4-.5 1.6-.4.7.5-1.3 1.3-3.7.3-2.8-1.2.4-.5.8-.9 1.1-.9.3 0 .2.5-.2 1.2zm55.3 2c-.3.7-.5.2-.5-1.2s.2-1.9.5-1.3c.2.7.2 1.9 0 2.5zm-89-1c-.2.7-1 1.2-1.6 1-.7-.1-1 .2-.7.7 1 1.6 4.7.9 4.1-.8-.4-1.1 0-.9 1.5.4 1.1 1 2.3 1.5 2.8 1 .4-.4.1-1-.5-1.2-.7-.3-1.3-.9-1.3-1.5 0-.7.4-.7 1.3.1 1 .8 1.7.7 2.7-.2 1.1-1 1.1-.9 0 .6-1.2 1.7-1.1 2.1 1 3.9 2 1.5 2.1 1.7.4.9-1.4-.7-2.4-.7-3.2.1-1.2 1.2-3.5.1-2.7-1.3.4-.5.2-.9-.3-.9s-1.3 1-1.8 2.1l-1 2.2-2.8-2.5c-2.7-2.3-2.7-2.5-1.2-4.1 2-2 4-2.3 3.3-.5zm23.8.6c-.3.3-1.1 0-1.8-.7-.9-1-.8-1.1.6-.5 1 .3 1.5.9 1.2 1.2zm24.5-1.4c0 .2-.7.7-1.6 1-.8.3-1.2.2-.9-.4.6-1 2.5-1.4 2.5-.6zm6 1.7c0 .6-.4.7-1 .4-.5-.3-1-1.1-1-1.6 0-.6.5-.7 1-.4.6.3 1 1.1 1 1.6zm17.5-.3c-.3.3-1.1 0-1.8-.7-.9-1-.8-1.1.6-.5 1 .3 1.5.9 1.2 1.2zm14.8 2.7c-.4 1.1 0 1.2 2 .2 1.4-.6 2.3-1.6 1.9-2.2-.3-.5.3-.3 1.3.5 1.7 1.4 1.8 1.3 1.2-.5-.7-1.8-.6-1.9.6-.3.8 1 1.7 1.5 2.1 1.1.4-.4.4.1 0 1.2-.5 1.2-.9 1.4-1.2.7-.3-1-.7-1-1.8-.1-.8.6-1.4.8-1.4.4 0-.5-.8-.1-1.9.9-1.6 1.5-1.9 1.5-3.1.1-1.2-1.4-1.5-1.4-3.1.1-1.6 1.4-1.8 1.4-2.8-.4-.8-1.4-.7-1.9.5-1.9.7 0 1.4.4 1.4.9s.5.6 1.2.2c.8-.5.2-1.2-1.7-2-2.6-1.1-2.7-1.3-.8-1.4 1.2 0 2.5.4 2.8 1 .3.5 1.1 1 1.8 1 .8 0 .8-.3-.1-1.2-.7-.7-1.2-1.7-1.2-2.3 0-.5.7-.2 1.5.8.7 1.1 1.1 2.5.8 3.2zm11.2-3.5c-.3.5-1.2 1-1.8 1-.7 0-.6-.4.3-1 1.9-1.2 2.3-1.2 1.5 0zm6 .8c-.3.3-1.1 0-1.8-.7-.9-1-.8-1.1.6-.5 1 .3 1.5.9 1.2 1.2zm10.2-.3c0 .8-.4 1.5-.9 1.5-.4 0-.8-.7-.8-1.5s.4-1.5.8-1.5c.5 0 .9.7.9 1.5zM61 186c0 .5-.5 1-1.1 1-.5 0-.7-.5-.4-1 .3-.6.8-1 1.1-1 .2 0 .4.4.4 1z"/><path d="M112.2 23.1c1.1.7 1 .9-.1.9-.8 0-1.1.3-.8.6.4.4 1.3.1 2.2-.6 1.1-.9 1.5-.9 1.5-.1 0 .7 1.1 1 2.5.8 4.2-.5 2.8-2.1-2.1-2.2-2.8-.1-4 .1-3.2.6zM124.6 23.3c.3 1 .9 1.5 1.2 1.2.3-.3 0-1.1-.7-1.8-1-.9-1.1-.8-.5.6zM127 23.9c0 .6.4 1.3 1 1.6.6.3.7-.1.4-.9-.7-1.8-1.4-2.1-1.4-.7zM134.5 25.9c-.7 1.3 4.5 5.2 5.8 4.4.8-.5.7-.8-.1-1.1-.7-.2-.9-.9-.5-1.5.5-.9.3-.9-.8-.1-1.1.9-1.7.9-2.6-.1-1-1.1-1-1.5 0-1.8.9-.4.9-.6 0-.6-.6-.1-1.4.3-1.8.8zM150.5 35c-.3.5-1.2.7-2 .3-.8-.3-1.5-.3-1.5 0 0 1.3 3 1.4 4 .1.7-.8 1-1.4.7-1.4-.3 0-.8.4-1.2 1zM152.6 41.8c-.3.5.1.9.9.9s1.2-.4.9-.9c-.3-.4-.7-.8-.9-.8-.2 0-.6.4-.9.8zM157.1 46.7c.7 1.2 1.5 2 1.8 1.7.3-.2-.3-1.2-1.3-2.2-1.7-1.6-1.8-1.6-.5.5zM167.6 57.9c-.4.5-.2 1.2.3 1.5.5.4 1.2.2 1.5-.3.4-.5.2-1.2-.3-1.5-.5-.4-1.2-.2-1.5.3zM175 64.6c.8 1 1.5 2 1.6 2.2.1.2.4-.1.7-.5.3-.5-.4-1.5-1.6-2.3-2.1-1.2-2.1-1.2-.7.6zM82.9 24.7c-.1.5-.1 1.1 0 1.5 0 .5-.3.8-.9.8-.5 0-1-.6-1-1.3 0-.6-.5-.4-1.1.6-.6.9-1.4 1.5-2 1.2-.5-.4-.9-.1-.9.4 0 1.2.3 1.3 4.3 1.6 1.9.1 2.6-.2 2.3-1.1-.3-.7.2-1.5 1-1.8.9-.3 1.2-1 .9-1.6-.7-1.2-2.4-1.3-2.6-.3zm-1.5 3.1c.3.5-.1.9-.9.9s-1.2-.4-.9-.9c.3-.4.7-.8.9-.8.2 0 .6.4.9.8zM37 117.9c0 .7-.5.9-1.2.5s-.4.2.6 1.4c2.4 2.7 2.6 2.7 2.1.1-.5-2.5-1.5-3.8-1.5-2zM38.2 129c-.8 1.3-.8 2.2.1 3.5 1.2 1.5 1.4 1.5 2.8-.2 1.4-1.6 1.4-1.9-.1-3.4-1.6-1.5-1.8-1.5-2.8.1zm2.1 2.6c-.4 1.2-.8 1.3-1.4.3-.9-1.5-.2-3.2 1.1-2.4.5.3.6 1.3.3 2.1zM38.6 135.8c-.2.4-.1 1.4.4 2.2.7 1.1 1.2 1.2 2.1.3.6-.6.8-1.6.5-2.2-.8-1.3-2.3-1.4-3-.3zM37.3 143.2c-1.3 2.2-1.3 4.2 0 2.9 1-1 1.9-4.1 1.2-4.1-.2 0-.7.6-1.2 1.2zM36.6 149.4c.3.9.1 1.6-.5 1.6s-1.1.9-1.1 1.9c0 1.5-.5 1.9-2.1 1.6-1.7-.3-1.9-.2-.9 1 1.1 1.3 1.5 1.3 3.3 0 2.1-1.5 3.2-6.1 1.6-7-.5-.3-.6.1-.3.9zM34 163.9c-.8.6-1.9.7-2.5.3-.5-.3-.4.1.2 1 .7.8 1 1.8.6 2.2-1.2 1.1-1.2 3.6-.1 4.3.7.3.8.1.4-.6-.4-.6 0-1.4.9-1.7.9-.4 1.4-1.3 1-2.2-.3-.8 0-2.1.6-2.8 1.3-1.6 1-1.7-1.1-.5zM174.5 143.1c-1 1.5.3 2.5 1.6 1.2.7-.7.7-1.3.1-1.7-.6-.3-1.4-.1-1.7.5zM179.9 149.2c-.6 1.9-.3 5.2.6 6.4 1 1.4 1.3 1.4 2.6-.2 1.2-1.5 1.2-1.6 0-.9-1.1.6-1.3.4-.8-.9.4-1 .3-1.5-.3-1.1-.9.6-1.4-.8-1.1-2.8.1-.6-.8-1.1-1-.5zM183.5 159c-.4.7-.1 1.9.8 2.7 1.9 1.9 2.9.3 1.2-2-.9-1.3-1.5-1.5-2-.7zM183.1 165.8c0 .4 1.4 1.8 3.2 3.2 3.1 2.3 3.1 2.3 1.2.1-1.1-1.3-1.8-2.6-1.5-2.9.3-.3-.3-.6-1.2-.8-1-.1-1.8.1-1.7.4zM164.6 187.5c-1.1.8-1.5 1.5-.9 1.5s1.6-.7 2.3-1.5c1.6-1.9 1.1-1.9-1.4 0zM47 186.4c0 .2.8 1 1.8 1.7 1.5 1.3 1.6 1.2.3-.4s-2.1-2.1-2.1-1.3zM56 188c-.9.6-1 1-.3 1 .6 0 1.5-.5 1.8-1 .8-1.2.4-1.2-1.5 0zM117.5 18c.3.5.8 1 1.1 1 .2 0 .4-.5.4-1 0-.6-.5-1-1.1-1-.5 0-.7.4-.4 1zM122.5 18.7c-1 .7-1.5 1.6-1.1 2 .4.4 1.2 0 1.7-1 .6-.9 1.4-1.5 1.9-1.2.5.3 1.1.2 1.4-.3.8-1.3-1.9-1-3.9.5zM143.3 18.5c0 .8.4 1.2.9.9.5-.3.6-1 .3-1.5-.9-1.3-1.2-1.1-1.2.6zM83 19c.8.5 2 1 2.5 1 .6 0 .3-.5-.5-1s-1.9-1-2.5-1c-.5 0-.3.5.5 1zM131.2 19.9c-1.1.7-1 1 .3 1.5 2 .7 3.5 0 3.4-1.7 0-.9-.2-.9-.6 0-.2.7-.9 1.3-1.4 1.3-.6 0-.7-.5-.4-1 .7-1.2.4-1.2-1.3-.1zM141.6 21.9c.9.9 3.4.9 3.4.1 0-.5-.9-.8-2-.7-1 .1-1.7.3-1.4.6zM67.6 23.3c.3 1 .9 1.5 1.2 1.2.3-.3 0-1.1-.7-1.8-1-.9-1.1-.8-.5.6zM71.5 24c.3.5 1.1 1 1.6 1 .6 0 .7-.5.4-1-.3-.6-1.1-1-1.6-1-.6 0-.7.4-.4 1zM101.3 25.2c-.2 1.5.1 1.7 1.1.9.7-.6 1.6-.8 1.9-.4.4.3.7 0 .7-.8 0-2.3-3.6-2.1-3.7.3zM147.3 24.6c0 .9.4 1.1 1.2.4.7-.5 1.4-.9 1.6-.7.2.1.3 0 .1-.2-.7-1.1-2.9-.7-2.9.5zM150.2 28c0 1.4.2 1.9.5 1.2.2-.6.2-1.8 0-2.5-.3-.6-.5-.1-.5 1.3zM65.9 29.2c1.5 2.1.2 2.4-1.9.5-1.2-1-1.2-.9-.1.6.8.9 1.1 2.1.7 2.4-.4.4-1.1.1-1.6-.7-.7-1-.8-.5-.5 1.8.3 2.6 0 3.2-1 2.8-.9-.3-1.2 0-.9.9.7 1.6 2.8 1.4 5.1-.7 1-.8 2.6-1.4 3.5-1.3 1.6.3 1.6.1.3-2.4-.7-1.5-2.2-3.4-3.2-4.2-1.6-1.3-1.7-1.3-.4.3zm1.7 2.7c-.4.5-.2 1.1.2 1.3.5.1-.3 1.3-1.9 2.6-3.2 2.6-3.5.6-.4-2.8 1.9-2.1 3.1-2.7 2.1-1.1z"/><path d="M64.9 34.7c-1.3 1.6-1.2 1.7.4.4.9-.7 1.7-1.5 1.7-1.7 0-.8-.8-.3-2.1 1.3zM59.7 30.7c.3.7.6 1.3.8 1.3.2 0 .5-.6.8-1.3.3-.8-.1-1.4-.8-1.4-.7 0-1.1.6-.8 1.4zM51 33.7c0 .6.8 1.7 1.8 2.4 1.6 1.3 1.6 1.3.2-.6-.8-1.1-1.6-2.2-1.7-2.4-.2-.2-.3 0-.3.6zM59 34c0 .5.5 1 1 1 .6 0 1-.5 1-1 0-.6-.4-1-1-1-.5 0-1 .4-1 1zM55 35.9c0 .5.5 1.3 1 1.6.6.3 1 .2 1-.4 0-.5-.4-1.3-1-1.6-.5-.3-1-.2-1 .4zM47.5 45.5c.2 2 .5 3.9.8 4.1.3.3.5-1 .3-3-.1-1.9-.4-3.7-.7-4.1-.3-.3-.5 1.1-.4 3zM163 42.3c0 .2.6 1 1.4 1.6 1.1.9 1.6.9 2.2-.1.4-.7.4-1-.1-.6-.4.4-1.4.3-2.2-.3-.7-.6-1.3-.9-1.3-.6zM43.5 47.9c-.3.5-.2 1.2.3 1.5.5.3.9-.1.9-.9 0-1.7-.3-1.9-1.2-.6zM170.7 49.7c-.3.5.6.9 2 1 1.9.1 2.2-.1 1.2-.8-1.7-1.1-2.6-1.1-3.2-.2zM42 51.9c0 .9 3 2.4 3.6 1.8.2-.1-.6-.8-1.6-1.5-1.1-.7-2-.8-2-.3zM171.5 54c-.8 1.3.3 3 1.8 2.9.9 0 .9-.2 0-.6-.7-.2-1.3-.9-1.3-1.4 0-.6.5-.7 1.2-.3.7.4.8.3.4-.4-.9-1.5-1.3-1.5-2.1-.2zM47 55c0 .5-.9.7-2 .5-1.1-.2-2 .1-2 .6s.8.9 1.8.7c1.2-.2 1.7.4 1.7 1.9 0 1.1.3 2.5.8 2.9.6.7 1-1 .5-2-.2-.3.7-1.5 1.9-2.8l2.2-2.3-2.5-.1c-1.3-.1-2.4.2-2.4.6zM37.7 56.5c-.4.8-.3 1.6.1 1.9.4.3.9-.4.9-1.5.2-2.3-.3-2.5-1-.4zM176.7 57c1 1.1 1.9 2 2.1 2 .1 0-.2-.9-.8-2-.6-1.1-1.5-2-2-2-.6 0-.2.9.7 2zM180.4 59.8c.4.3 1.4.7 2.2.8.9.1 1.3 0 1-.4-.4-.3-1.4-.7-2.2-.8-.9-.1-1.3 0-1 .4zM23.6 72.2c.3.5 1 .6 1.5.3 1.3-.9 1.1-1.2-.6-1.2-.8 0-1.2.4-.9.9zM188.1 74.8c-.7 1.3-.6 1.9.2 1.9.7 0 1.3-.9 1.3-1.9 0-1-.1-1.8-.3-1.8-.1 0-.7.8-1.2 1.8zM23.3 78.2c.1.7-.6 1.2-1.7 1.1-1.3-.1-1.5.2-.7 1 .7.7 1.5.6 2.6-.3 1.7-1.4 2-3 .5-3-.5 0-.9.6-.7 1.2zM23.6 82.5c-.9 2.6-.7 3.2.5 1.2.6-1 .9-2.1.6-2.3-.2-.3-.7.2-1.1 1.1zM187.3 89.5c0 .8.4 1.2.9.9.5-.3.6-1 .3-1.5-.9-1.3-1.2-1.1-1.2.6zM19 90c0 .5.5 1 1.1 1 .5 0 .7-.5.4-1-.3-.6-.8-1-1.1-1-.2 0-.4.4-.4 1zM25.5 91c.6 1 .3 1.2-1.3.8-1.2-.4-2-.2-1.6.3.7 1.2 3.1 1.2 3.9 0 .3-.5 0-1.3-.6-1.7-.8-.5-.9-.3-.4.6zM25 98.1c0 .5.5.7 1 .4.6-.3 1-.8 1-1.1 0-.2-.4-.4-1-.4-.5 0-1 .5-1 1.1zM27.5 99c-.3.5-.2 1.8.4 2.7.7 1.4.9 1.2.8-1-.2-3-.3-3.1-1.2-1.7zM179 99.5c0 .8.4 1.5 1 1.5.5 0 .7-.7.4-1.5-.4-.8-.8-1.5-1-1.5-.2 0-.4.7-.4 1.5zM183.5 101.1c-.4.6-.5 1.2-.2 1.5.2.3.7-.2 1-1.1.7-1.7.1-2-.8-.4zM169.9 102c-.3 2-.4 2.5-1.2 3.7-.4.6-.2 1.5.4 1.9.8.5.4 1.2-1.1 2.4-2.3 1.7-3.7 7-1.9 7 .6 0 .8.4.5.9-.3.5.1 1.4.9 2.1 1.2 1 1.3 1.6.3 2.8-.8 1-.9 1.3-.2.9s1.4 0 1.7.8c.4.9.1 1.2-.7.9-.8-.3-1.7-.1-2.1.5-.3.7 0 .8.9.5 1.5-.6 6.2 3.3 5.2 4.4-.4.3-1.2-.3-2-1.3-1-1.3-1.5-1.5-2.1-.6-.4.7-.1 1.9.7 2.7 1.3 1.3 1.7 1.3 3.4-.3 1.1-1 1.8-1.7 1.5-1.6-.7.4-3-3.1-2.5-3.9.9-1.3 2.6-.9 1.8.4-.4.7-.3.9.1.5.5-.4 1-1.4 1.1-2.2.2-1.1-.2-1.2-1.6-.5-2.8 1.5-3.7 1.1-1.5-.6 1.9-1.6 1.9-1.6-.5-.9-2.2.7-2.3.6-1.1-.8 1-1.3 1.8-1.4 3.5-.7 2 1 2 1-.1-.6-2.7-1.9-3-3.4-.7-3.4.9 0 1.2.5.8 1.2-.4.7-.3.8.5.4.6-.4.9-1.2.6-1.7-1-1.4-3.3-1.1-4.3.7-.6 1.1-1.2 1.3-1.6.6-.3-.6.3-1.7 1.5-2.5 2.7-1.9.7-3.2-2.3-1.6-2 1.1-2.1 1-1.1-.3.7-.8.9-1.9.5-2.3-.4-.5.1-.5 1.1-.2 1 .4 1.6.3 1.3-.2-.3-.5.1-1.4.9-2.1 1.3-1.1 1.5-1 1 .1-.2.8-.1 2.1.5 2.9.8 1.3 1.1 1.3 2.2.1 1-1 1-1.2.1-.7-1.2.7-1.7-.4-1.4-3 .1-.7-.5-1.4-1.3-1.7-.9-.3-1.2-1.5-.9-3.1.3-1.4.3-2.6-.1-2.6-.3 0-.7.4-.7 1zm.1 12.4c0 .2-.8 1-1.7 1.7-1.6 1.3-1.7 1.2-.4-.4 1.3-1.6 2.1-2.1 2.1-1.3zm.5 4.8c.5-.4.5-.1.1.6-.6 1-1.1 1-2.2.1-.8-.6-1.4-1.4-1.4-1.6 0-.3.6 0 1.3.6.8.6 1.8.7 2.2.3zM174 106c0 .5.5 1 1.1 1 .5 0 .7-.5.4-1-.3-.6-.8-1-1.1-1-.2 0-.4.4-.4 1zM179 108c0 .5.5 1 1.1 1 .5 0 .7-.5.4-1-.3-.6-.8-1-1.1-1-.2 0-.4.4-.4 1zM33.2 110.5c-1.6 1.2-2.1 1.2-2.5.2-.4-.9-.6-.9-.6 0-.1 1.6 2.2 2.9 2.7 1.5.2-.7.8-1.2 1.3-1.2.6 0 .7.4.4 1-.3.5-.2 1 .3 1 1.3 0 2.3-2.8 1.3-3.4-.4-.3-1.7.1-2.9.9zM175.9 112.2c-.5 1.8-.6 3.8-.1 3.4.7-.8 1.2-3.6.6-3.6-.2 0-.4.1-.5.2zM32.2 115.5c-.7.8-.9 1.5-.4 1.5s1.5-.7 2.2-1.5c1.6-1.9-.1-1.9-1.8 0zM181.5 133.1c-.4.6-.5 1.2-.2 1.5.2.3.7-.2 1-1.1.7-1.7.1-2-.8-.4zM32 133.4c0 .2.7.7 1.6 1 .8.3 1.2.2.9-.4-.6-1-2.5-1.4-2.5-.6zM177.5 134c.3.5.8 1 1.1 1 .2 0 .4-.5.4-1 0-.6-.5-1-1.1-1-.5 0-.7.4-.4 1zM29.6 137.8c-.3.5.1.9.9.9s1.2-.4.9-.9c-.3-.4-.7-.8-.9-.8-.2 0-.6.4-.9.8zM181.1 140.6c0 1.1.3 1.4.6.6.3-.7.2-1.6-.1-1.9-.3-.4-.6.2-.5 1.3zM180.6 144.3c.3 1 .9 1.5 1.2 1.2.3-.3 0-1.1-.7-1.8-1-.9-1.1-.8-.5.6zM27.3 145.3c0 .8.6 1.4 1.4 1.4.9 0 1-.4.2-1.4-.6-.7-1.2-1.3-1.4-1.3-.1 0-.2.6-.2 1.3zM28.1 150.4c-.8 1-.9 1.6-.1 2.1.6.4.9.1.8-.7-.2-.7.3-1.2 1-1 .8.1 1.1-.2.7-.8-.8-1.3-1-1.3-2.4.4zM24 151.4c0 .2.8 1 1.8 1.7 1.5 1.3 1.6 1.2.3-.4s-2.1-2.1-2.1-1.3zM26.4 157c0 1.3.4 1.6 1 1 .7-.7.7-1.3 0-2-.6-.6-1-.3-1 1zM187 156.1c0 .5.5.7 1 .4.6-.3 1-.8 1-1.1 0-.2-.4-.4-1-.4-.5 0-1 .5-1 1.1zM191.3 158.5c0 .8.4 1.2.9.9.5-.3.6-1 .3-1.5-.9-1.3-1.2-1.1-1.2.6zM191.5 163.1c-.4.6-.5 1.2-.2 1.5.2.3.7-.2 1-1.1.7-1.7.1-2-.8-.4zM25.3 168.5c0 .7.6 1.1 1.4.8.7-.3 1.3-.6 1.3-.8 0-.2-.6-.5-1.3-.8-.8-.3-1.4.1-1.4.8zM191.4 175.9c0 1.6.3 2.7.6 2.5.7-.8.7-5.4 0-5.4-.4 0-.7 1.3-.6 2.9zM194.6 174.2c.3.5 1 .6 1.5.3 1.3-.9 1.1-1.2-.6-1.2-.8 0-1.2.4-.9.9zM23.6 177.8c-.3.5.1.9.9.9s1.2-.4.9-.9c-.3-.4-.7-.8-.9-.8-.2 0-.6.4-.9.8zM27 178.4c0 .2.8 1 1.8 1.7 1.5 1.3 1.6 1.2.3-.4s-2.1-2.1-2.1-1.3zM41.5 179c-.4.6-1.4.9-2.2.6-1.1-.4-1.3-.2-.9.9.8 2.1-.4 4.6-1.8 3.9-.6-.3-.2.2.8 1 1.1.9 2.4 1.6 2.9 1.6s.3.8-.4 1.7c-1.2 1.6-1.2 1.7.2.6 1.6-1.3 1.9-4.6.6-5.9-.4-.4 0-1.6 1-2.6.9-1 1.4-2.1 1.1-2.4-.3-.3-.9 0-1.3.6zm-1 4.9c.3.5.1 1.2-.5 1.6-.5.3-1-.1-1-.9 0-1.8.6-2.1 1.5-.7zM179 180c0 .5.5 1 1 1 .6 0 1-.5 1-1 0-.6-.4-1-1-1-.5 0-1 .4-1 1zM28.6 183.8c-.3.5.1.9.9.9s1.5-.4 1.5-.9c0-.4-.4-.8-.9-.8-.6 0-1.2.4-1.5.8zM185 184.2c0 .6.3.8.7.5.3-.4 1.2.1 2 1.1 1.3 1.5 1.3 1.5.3-.6-1.1-2.3-3-3-3-1zM191.6 184.2c.3.5 1 .6 1.5.3 1.3-.9 1.1-1.2-.6-1.2-.8 0-1.2.4-.9.9zM158 186.9c-.8.6-1.8.7-2.2.5-.4-.3-.8 0-.8.7 0 .8-.4.8-1.6-.2-1.3-1-1.7-1-2.4.1-.5.8-.6 1.8-.4 2.2.3.4 0 .8-.6.8s-.8.4-.5 1c.3.5 1.1 1 1.6 1 .6 0 .7-.5.3-1.2-.5-.7-.2-.9.9-.5 1.2.4 1.4.2 1-1.1-.6-1.5-.4-1.5 1-.4.8.8 1.3 2.1 1 3-.4 1.4-.3 1.5.5.2.8-1 .7-1.9-.1-2.9-1-1.2-.9-1.4.3-.9.8.3 2.4-.3 3.4-1.3 2-2 1.2-2.5-1.4-1zM182.6 187.6c-.6 1.5-.4 1.5 1.1.3 1-.7 2-1.5 2.2-1.6.2-.2-.3-.3-1.1-.3-.9 0-1.9.7-2.2 1.6z"/><path d="M35 187.4c0 .2.7.6 1.5 1 .8.3 1.5.1 1.5-.4 0-.6-.7-1-1.5-1s-1.5.2-1.5.4zM63 188c0 .5.5 1 1.1 1 .8 0 .8.4.2 1.2-1.2 1.5-2.4 4.8-1.8 4.8.8 0 3.1-5.7 2.7-6.8-.4-1.4-2.2-1.6-2.2-.2zM71 188.5c0 1.2.8 1.4 3.2 1 2.6-.5 2.9-.3 2 .8-.9 1-.8 1.8.3 3.3 1.5 1.9 1.5 1.9.8 0-.5-1.4-.3-1.7.7-1.1 1 .6 1.1.4.4-.6-.4-.8-.9-2-1-2.7-.4-2.2-1.4-2.8-2.3-1.3-.6.9-1.1 1-1.5.2-1-1.6-2.6-1.3-2.6.4zM90.6 187.9c-.3.4.1 1.7.9 2.7.9 1.2 1.4 1.4 1.5.6 0-.7.4-1.1 1-.7.5.3.7 1.3.4 2.3-.5 1.3-.4 1.4.4.3.7-.9 1.2-1 1.6-.2.4.6 1.2 1.1 1.9 1.1.6 0 .1-.7-1.1-1.6-1.7-1.1-2-1.9-1.3-2.8 1.7-2-.1-2.8-2.1-.9-1.8 1.6-1.8 1.6-1.2 0 .6-1.7-1-2.4-2-.8zM108.6 188c-1.9.6-1.8.7.4 1.3 2 .5 2.1.8 1 2.2-2 2.4-.8 2.4 1.7 0 1.6-1.6 1.9-2.5 1.1-3.5-.8-1.2-.9-1.2-.4.2.3 1 .1 1.8-.4 1.8s-1-.6-1.2-1.4c-.2-.9-1-1.1-2.2-.6zM33.6 189.8c-.3.4.4.9 1.5.9 2.3.2 2.5-.3.4-1-.8-.4-1.6-.3-1.9.1zM166.1 191.7c-1 2.6-1 2.6.4.9 1.2-1.6 1.7-1.7 3.1-.5 1.6 1.3 1.6 1.2.3-.9-1.8-2.9-2.3-2.8-3.8.5zM184 190c-.9.6-1 1-.3 1 .6 0 1.5-.5 1.8-1 .8-1.2.4-1.2-1.5 0zM146 192.5c0 .8.2 1.5.4 1.5s.6-.7 1-1.5c.3-.8.1-1.5-.4-1.5-.6 0-1 .7-1 1.5zM158.9 192.3c.6.8.8 1.7.4 2-.3.4-.1.7.5.7 1.4 0 1.4-.2.6-2.4-.3-.9-1.1-1.6-1.6-1.6-.7 0-.6.5.1 1.3zM173.5 192c.3.5.8 1 1.1 1 .2 0 .4-.5.4-1 0-.6-.5-1-1.1-1-.5 0-.7.4-.4 1zM178.6 192.2c.3.5 1 .6 1.5.3 1.3-.9 1.1-1.2-.6-1.2-.8 0-1.2.4-.9.9zM59 194c0 .5.5 1 1.1 1 .5 0 .7-.5.4-1-.3-.6-.8-1-1.1-1-.2 0-.4.4-.4 1z"/><path d="M73.3 194.5c-.3.9-.3 1.8-.1 2.1.3.3.8-.4 1.1-1.6.6-2.3-.1-2.7-1-.5zM79.5 194c-.3.5-.1 1 .4 1 .6 0 1.1-.5 1.1-1 0-.6-.2-1-.4-1-.3 0-.8.4-1.1 1zM87 194c0 .5.5 1 1.1 1 .5 0 .7-.5.4-1-.3-.6-.8-1-1.1-1-.2 0-.4.4-.4 1zM91.2 193.9c-1.1.7-1.1.9 0 1.4.9.3 1.5-.1 1.5-.9s-.1-1.4-.1-1.4c-.1 0-.7.4-1.4.9zM103.5 194c-.3.5-.1 1 .4 1 .6 0 1.1-.5 1.1-1 0-.6-.2-1-.4-1-.3 0-.8.4-1.1 1zM111 193.7c0 .6.8 1.7 1.8 2.4 1.6 1.3 1.6 1.3.2-.6-.8-1.1-1.6-2.2-1.7-2.4-.2-.2-.3 0-.3.6zM117.3 193.7c.4.3.1 1.3-.6 2.2-1.1 1.4-1 1.4.5.2 1.6-1.2 1.6-3.1.1-3.1-.4 0-.3.3 0 .7zM123 194c0 .5.5 1 1.1 1 .5 0 .7-.5.4-1-.3-.6-.8-1-1.1-1-.2 0-.4.4-.4 1zM131.2 193.9c-1.1.7-1.1.9 0 1.4.9.3 1.5-.1 1.5-.9s-.1-1.4-.1-1.4c-.1 0-.7.4-1.4.9zM143.2 193.9c-1.1.7-1.1.9 0 1.4.9.3 1.5-.1 1.5-.9s-.1-1.4-.1-1.4c-.1 0-.7.4-1.4.9zM126.8 194.7c.7.3 1.6.2 1.9-.1.4-.3-.2-.6-1.3-.5-1.1 0-1.4.3-.6.6zM169.5 195.1c-.4.6-.5 1.2-.2 1.5.2.3.7-.2 1-1.1.7-1.7.1-2-.8-.4zM52 196c-.9.6-1 1-.3 1 .6 0 1.5-.5 1.8-1 .8-1.2.4-1.2-1.5 0zM64.6 196.2c.3.5 1 .6 1.5.3 1.3-.9 1.1-1.2-.6-1.2-.8 0-1.2.4-.9.9zM97.6 196.2c.3.5 1 .6 1.5.3 1.3-.9 1.1-1.2-.6-1.2-.8 0-1.2.4-.9.9zM152.6 196.2c.3.5 1 .6 1.5.3 1.3-.9 1.1-1.2-.6-1.2-.8 0-1.2.4-.9.9zM163.4 197.2l-1.9 2.3 2.3-1.9c2.1-1.8 2.7-2.6 1.9-2.6-.2 0-1.2 1-2.3 2.2zM89.5 198c-.3.5-.1 1 .4 1 .6 0 1.1-.5 1.1-1 0-.6-.2-1-.4-1-.3 0-.8.4-1.1 1zM129.5 198c-.3.5-.1 1 .4 1 .6 0 1.1-.5 1.1-1 0-.6-.2-1-.4-1-.3 0-.8.4-1.1 1zM155.5 198c.3.5.8 1 1.1 1 .2 0 .4-.5.4-1 0-.6-.5-1-1.1-1-.5 0-.7.4-.4 1z"/></svg>